<svg id="Capa_1" enable-background="new 0 0 512 512" height="512" viewBox="0 0 512 512" width="512" xmlns="http://www.w3.org/2000/svg"><g><g><g><path d="m287.265 512c-2.873 0-5.211-2.338-5.211-5.211v-244.79c0-14.499-5.59-28.297-15.739-38.851-5.29-5.501-10.015-11.853-14.042-18.878-6.874-11.988-9.023-27.807-6.218-45.747 2.075-13.271 6.088-23.047 6.258-23.456.81-1.954 2.697-3.217 4.808-3.217.238 0 .48.017.719.05.435.06 10.904 1.538 23.4 6.451 12.373 4.864 22.33 11.36 29.596 19.31l7.693 8.417 7.693-8.417c7.266-7.95 17.223-14.446 29.595-19.31 12.497-4.913 22.967-6.391 23.405-6.451.218-.03.46-.046.698-.046 2.122 0 4.016 1.261 4.824 3.213.171.41 4.184 10.187 6.259 23.457 2.805 17.94.655 33.759-6.218 45.747-4.025 7.022-8.749 13.374-14.041 18.877-10.15 10.554-15.74 24.353-15.74 38.852v244.79c0 2.873-2.338 5.211-5.211 5.211h-62.528z" fill="#00b44b"/></g><g><path d="m162.204 512c-2.873 0-5.211-2.338-5.211-5.211v-244.79c0-14.499-5.589-28.297-15.738-38.851-5.29-5.501-10.015-11.853-14.042-18.878-6.874-11.988-9.023-27.807-6.218-45.747 2.075-13.271 6.088-23.047 6.258-23.456.81-1.954 2.698-3.217 4.809-3.217.237 0 .479.017.717.05.436.06 10.905 1.538 23.401 6.451 12.373 4.864 22.33 11.36 29.596 19.31l7.693 8.417 7.693-8.417c7.266-7.95 17.223-14.446 29.595-19.31 12.497-4.913 22.967-6.391 23.405-6.451.218-.03.46-.046.698-.046 2.122 0 4.016 1.261 4.824 3.213.171.41 4.184 10.187 6.259 23.457 2.805 17.94.656 33.759-6.218 45.747-4.025 7.022-8.749 13.374-14.041 18.877-10.15 10.554-15.74 24.353-15.74 38.852v244.79c0 2.873-2.338 5.211-5.211 5.211h-62.529z" fill="#5bc980"/></g><g><g><path d="m211.744 156.469c-14.187 0-22.776-9.557-27.484-17.575-6.795-11.573-10.24-27.685-10.24-47.887 0-16.84 5.576-37.222 16.125-58.944 8.404-17.304 16.996-29.374 17.358-29.88.979-1.368 2.564-2.183 4.241-2.183s3.262.815 4.239 2.18c.363.509 8.956 12.58 17.36 29.883 10.549 21.722 16.125 42.104 16.125 58.944 0 20.203-3.445 36.315-10.24 47.887-4.707 8.018-13.295 17.575-27.484 17.575z" fill="#bee8c9"/><path d="m302.413 156.469c-14.187 0-22.776-9.557-27.484-17.575-6.794-11.573-10.24-27.685-10.24-47.887 0-16.84 5.576-37.222 16.125-58.944 8.404-17.304 16.996-29.374 17.358-29.88.979-1.368 2.564-2.183 4.241-2.183s3.262.815 4.239 2.18c.363.509 8.956 12.58 17.36 29.883 10.549 21.722 16.125 42.104 16.125 58.944 0 20.203-3.445 36.315-10.24 47.887-4.706 8.018-13.295 17.575-27.484 17.575z" fill="#80d398"/></g><g><path d="m304.28 202.581c-3.336 0-6.674-.611-9.922-1.816-13.3-4.934-18.028-16.882-19.654-26.036-2.345-13.215.029-29.519 7.056-48.459 14.444-38.933 61.814-71.311 62.29-71.633.867-.586 1.876-.896 2.921-.896.62 0 1.229.109 1.813.326 1.572.583 2.774 1.898 3.215 3.517.151.555 14.936 56.01.498 94.928-7.028 18.942-15.862 32.85-26.257 41.335-6.997 5.714-14.592 8.734-21.96 8.734z" fill="#00a03c"/><path d="m208.24 202.074c-7.368 0-14.962-3.02-21.96-8.733-10.396-8.487-19.23-22.394-26.257-41.335-14.439-38.92.347-94.374.498-94.93.441-1.618 1.643-2.933 3.215-3.516.583-.217 1.194-.327 1.814-.327 1.044 0 2.053.309 2.916.895.48.325 47.851 32.702 62.294 71.635 7.028 18.94 9.401 35.245 7.056 48.459-1.625 9.154-6.354 21.102-19.655 26.036-3.246 1.205-6.584 1.816-9.921 1.816z" fill="#80d398"/><g><path d="m256.26 195.957c-14.188 0-22.777-9.557-27.485-17.574-6.795-11.572-10.24-27.684-10.24-47.887 0-16.84 5.576-37.222 16.125-58.944 8.395-17.285 16.998-29.376 17.361-29.883.976-1.365 2.561-2.18 4.239-2.18 1.677 0 3.262.815 4.239 2.18.363.509 8.956 12.58 17.36 29.883 10.549 21.722 16.125 42.104 16.125 58.944 0 20.202-3.445 36.314-10.24 47.887-4.707 8.018-13.296 17.574-27.484 17.574z" fill="#1fbf66"/><path d="m277.859 71.552c-8.404-17.303-16.996-29.374-17.36-29.883-.977-1.365-2.562-2.18-4.239-2.18 0 0 0 0-.001 0v156.469h.001c14.187 0 22.776-9.557 27.484-17.575 6.795-11.573 10.24-27.685 10.24-47.887 0-16.84-5.576-37.222-16.125-58.944z" fill="#00b44b"/></g></g></g><g><path d="m224.983 512c-2.873 0-5.211-2.338-5.211-5.211v-244.79c0-14.501-5.59-28.299-15.74-38.851-5.287-5.498-10.012-11.85-14.042-18.879-6.873-11.987-9.022-27.806-6.217-45.746 2.075-13.271 6.088-23.047 6.258-23.456.811-1.956 2.694-3.218 4.799-3.218.238 0 .478.016.717.049.447.062 10.916 1.54 23.413 6.452 12.373 4.865 22.33 11.361 29.595 19.311l7.693 8.418 7.693-8.418c7.266-7.95 17.223-14.446 29.597-19.311 12.496-4.912 22.966-6.389 23.404-6.45.218-.03.46-.046.699-.046 2.121 0 4.015 1.261 4.823 3.213.169.408 4.186 10.201 6.259 23.457 2.804 17.94.654 33.759-6.22 45.747-4.027 7.027-8.752 13.379-14.042 18.879-10.149 10.552-15.738 24.35-15.738 38.85v244.79c0 2.873-2.338 5.211-5.211 5.211h-62.529z" fill="#a0deb0"/><path d="m328.724 158.523c-2.073-13.256-6.09-23.049-6.259-23.457-.808-1.952-2.702-3.213-4.823-3.213-.239 0-.481.016-.699.046-.439.061-10.908 1.539-23.404 6.45-12.374 4.865-22.331 11.361-29.597 19.311l-7.681 8.405v345.935h31.254c2.873 0 5.211-2.338 5.211-5.211v-244.79c0-14.5 5.59-28.297 15.738-38.849 5.29-5.5 10.015-11.852 14.042-18.879 6.873-11.989 9.022-27.808 6.218-45.748z" fill="#80d398"/></g></g><g><path d="m156.993 352.883h198.013v68.732h-198.013z" fill="#fee17f"/><path d="m256.26 352.883h98.746v68.732h-98.746z" fill="#fdba3e"/></g></g></svg>