<svg id="Layer_1" enable-background="new 0 0 508.264 508.264" height="512" viewBox="0 0 508.264 508.264" width="512" xmlns="http://www.w3.org/2000/svg"><path d="m460.851 408.969c-2.515 0-5.019-.044-7.521-.093 9.442-14.443 14.933-31.564 14.933-49.943 0-59.99-57.353-104.247-117.425-90.906-7.794-48.108-53.092-83.256-104.6-78.173 11.279-57.822-34.369-110.747-94.263-110.747-20.263 0-39.047 6.119-54.536 16.538-1.709-13.917-2.614-28.072-2.614-42.429 0-25.45-21.227-46.082-47.413-46.082s-47.412 20.63-47.412 46.081c0 247.732 206.305 447.918 460.851 447.918 26.184 0 47.413-20.632 47.413-46.082 0-25.451-21.229-46.082-47.413-46.082z" fill="#91c656"/><path d="m460.851 408.969c-2.514 0-5.019-.044-7.521-.093 45.035-68.883-17.653-159.689-102.492-140.849-7.794-48.106-53.088-83.256-104.6-78.173 16.197-83.034-79.465-140.847-148.799-94.209-1.71-13.917-2.614-28.072-2.614-42.429 0-28.869-26.955-50.56-56.125-45.292-1.242 84.92 59.556 253.023 104.034 239.845 11.105 59.156 56.252 96.981 133.677 114.58 36.981 62.396 128.23 83.725 231.736 95.778 1.822-26.902-20.128-49.158-47.296-49.158z" fill="#9bd65e"/><path d="m193.659 210.67c3.517 63.641 52.445 88.805 111.961 104.997 22.04 57.637 79.52 80.654 147.71 93.209 45.035-68.883-17.653-159.689-102.492-140.849-7.794-48.106-53.088-83.256-104.6-78.173 16.197-83.034-79.465-140.847-148.799-94.209 1.539 68.316 38.213 102.142 96.22 115.025z" fill="#aced70"/><g fill="#c0f28b"><path d="m353.846 267.411c-.222.042-.445.084-.667.128.222-.044.445-.083.667-.128z"/><path d="m350.831 267.989c-7.884-48.533-53.547-83.172-104.593-78.135 11.279-57.822-34.369-110.747-94.263-110.747-20.263 0-39.047 6.119-54.536 16.538 1.539 68.317 53.773 116.254 111.78 129.136 1.215 21.979 54.21 48.886 81.228 48.886 20.643 0 40.822-1.966 60.384-5.678z"/></g></svg>