<?xml version="1.0" encoding="iso-8859-1"?>
<!-- Generator: Adobe Illustrator 19.0.0, SVG Export Plug-In . SVG Version: 6.00 Build 0)  -->
<svg version="1.1" id="Capa_1" xmlns="http://www.w3.org/2000/svg" xmlns:xlink="http://www.w3.org/1999/xlink" x="0px" y="0px"
	 viewBox="0 0 512 512" style="enable-background:new 0 0 512 512;" xml:space="preserve">
<path style="fill:#ED4444;" d="M7.706,512c-1.971,0-3.943-0.752-5.447-2.257c-3.008-3.008-3.008-7.886,0-10.894l70.223-70.224
	c3.008-3.008,7.886-3.008,10.894,0c3.008,3.008,3.008,7.886,0,10.894l-70.223,70.224C11.648,511.248,9.677,512,7.706,512z"/>
<path style="fill:#498960;" d="M220.089,177.09l-10.784-18.655c-24.458-42.29-16.308-94.487,16.676-127.469
	c6.377-6.377,13.681-12.037,21.864-16.771c45.899-26.533,103.459-14.68,135.468,25.631l88.859,88.859
	c40.311,32.01,52.164,89.569,25.631,135.468c-4.733,8.182-10.393,15.486-16.771,21.864C448.048,319,395.852,327.15,353.562,302.693
	l-18.638-10.784"/>
<path style="fill:#60A571;" d="M262.163,193.334v-49.075c0-58.303,47.272-105.574,105.574-105.574
	c5.285,0,10.496,0.391,15.573,1.141c45.843,6.777,82.082,43.016,88.859,88.859c0.75,5.077,1.141,10.289,1.141,15.573
	c0.008,29.159-11.814,55.557-30.916,74.658c-19.102,19.102-45.499,30.924-74.658,30.916h-49.075"/>
<path style="fill:#498960;" d="M294.188,225.518c-1.971,0-3.943-0.752-5.447-2.257c-3.008-3.008-3.008-7.886,0-10.894l80.522-80.522
	c3.008-3.008,7.886-3.008,10.894,0c3.008,3.008,3.008,7.886,0,10.894l-80.522,80.522
	C298.131,224.766,296.159,225.518,294.188,225.518z"/>
<path style="fill:#ED4444;" d="M187.224,173.493L187.224,173.493c83.552,0,151.285,67.732,151.285,151.285l0,0
	c0,83.552-67.732,151.285-151.285,151.285H35.939V324.778C35.939,241.226,103.672,173.493,187.224,173.493z"/>
<path style="fill:#C73636;" d="M229.41,215.673c30.127-11.65,52.678-9.986,64.793,2.128
	c-27.381-27.381-65.199-44.312-106.975-44.312c-83.553,0-151.288,67.734-151.288,151.288v151.287L78.123,366.96
	C101.423,306.707,169.157,238.972,229.41,215.673z"/>
<path style="fill:#E6E6E6;" d="M338.463,328.008c-37.165-6.631-72.739-24.324-101.442-53.027
	c-14.054-14.053-25.471-29.742-34.223-46.469c-9.158-17.439-15.419-36.002-18.811-54.98c1.083-0.022,2.157-0.037,3.232-0.036
	c41.443,0,78.992,16.661,106.307,43.657c0.036,0.022,0.065,0.051,0.102,0.087c27.708,27.417,44.87,65.469,44.87,107.535l0.007,0.007
	C338.499,325.866,338.484,326.941,338.463,328.008z"/>
<path style="fill:#CCCCCC;" d="M187.219,173.496c-1.074,0-2.15,0.014-3.232,0.036c3.392,18.978,9.653,37.542,18.811,54.98
	c8.911-5.12,17.845-9.449,26.611-12.841c29.581-11.439,51.85-10.044,64.117,1.481C266.211,190.158,228.662,173.496,187.219,173.496z
	"/>
<g>
	<path style="fill:#E6E6E6;" d="M165.466,294.94c-1.971,0-3.943-0.752-5.447-2.257l-40.708-40.707
		c-3.008-3.008-3.008-7.886,0-10.894c3.008-3.008,7.886-3.008,10.894,0l40.708,40.707c3.008,3.008,3.008,7.886,0,10.894
		C169.409,294.187,167.438,294.94,165.466,294.94z"/>
	<path style="fill:#E6E6E6;" d="M226.528,430.233c-1.971,0-3.943-0.752-5.447-2.257l-40.708-40.707
		c-3.008-3.008-3.008-7.886,0-10.894c3.008-3.008,7.886-3.008,10.894,0l40.708,40.707c3.008,3.008,3.008,7.886,0,10.894
		C230.471,429.48,228.5,430.233,226.528,430.233z"/>
</g>
<g>
</g>
<g>
</g>
<g>
</g>
<g>
</g>
<g>
</g>
<g>
</g>
<g>
</g>
<g>
</g>
<g>
</g>
<g>
</g>
<g>
</g>
<g>
</g>
<g>
</g>
<g>
</g>
<g>
</g>
</svg>
