<?xml version="1.0" encoding="iso-8859-1"?>
<!-- Generator: Adobe Illustrator 19.0.0, SVG Export Plug-In . SVG Version: 6.00 Build 0)  -->
<svg version="1.1" id="Capa_1" xmlns="http://www.w3.org/2000/svg" xmlns:xlink="http://www.w3.org/1999/xlink" x="0px" y="0px"
	 viewBox="0 0 512 512" style="enable-background:new 0 0 512 512;" xml:space="preserve">
<path style="fill:#D0D0D0;" d="M354.462,201.846H157.538c-8.157,0-14.769,6.613-14.769,14.769v62.406
	c0,30.27,6.176,59.687,18.358,87.434c2.75,6.264,9.441,9.823,16.17,8.594c3.259-0.594,6.549-0.894,9.78-0.894
	c17.993,0,34.77,8.911,44.878,23.837c2.628,3.879,6.942,6.283,11.623,6.475c0.203,0.009,0.405,0.013,0.607,0.013
	c4.461,0,8.698-2.02,11.508-5.514c12.494-15.536,33.543-24.811,56.306-24.811c7.033,0,13.995,0.894,20.695,2.658
	c6.968,1.839,14.25-1.628,17.219-8.198c12.818-28.356,19.317-58.499,19.317-89.593v-62.406
	C369.231,208.459,362.618,201.846,354.462,201.846z"/>
<path style="fill:#DADADA;" d="M256,201.846h-98.462c-8.157,0-14.769,6.613-14.769,14.769v62.406
	c0,30.27,6.176,59.687,18.358,87.434c2.75,6.264,9.441,9.823,16.17,8.594c3.259-0.594,6.549-0.894,9.78-0.894
	c17.993,0,34.77,8.911,44.878,23.837c2.628,3.879,6.942,6.283,11.623,6.475c0.203,0.009,0.405,0.013,0.607,0.013
	c4.461,0,8.698-2.02,11.508-5.514c0.098-0.122,0.208-0.236,0.308-0.357V201.846H256z"/>
<path style="fill:#7C4233;" d="M293.011,16.838C283.684,6.137,270.194,0,256,0c-14.194,0-27.684,6.137-37.011,16.838
	s-13.562,24.904-11.623,38.965l7.31,52.993c4.554,33.018,6.863,66.656,6.863,99.983v66.913c0,3.918,1.556,7.674,4.326,10.443
	l19.692,19.692c2.883,2.884,6.663,4.326,10.443,4.326c3.78,0,7.56-1.442,10.443-4.326l19.692-19.692
	c2.771-2.769,4.326-6.525,4.326-10.443v-66.913c0-33.326,2.309-66.965,6.863-99.982l7.31-52.994
	C306.573,41.742,302.337,27.539,293.011,16.838z"/>
<path style="fill:#9E5C4C;" d="M218.989,16.838c-9.326,10.701-13.562,24.904-11.623,38.965l7.31,52.993
	c4.554,33.018,6.863,66.656,6.863,99.983v66.913c0,3.918,1.556,7.674,4.326,10.443l19.692,19.692
	c2.883,2.884,6.663,4.326,10.443,4.326V0C241.806,0,228.316,6.137,218.989,16.838z"/>
<path style="fill:#BC622F;" d="M424,396.308c-7.276,0-14.35,1.336-20.942,3.894c-5.239-12.808-14.058-24.385-25.911-33.752
	c-17.818-14.08-40.954-21.835-65.147-21.835c-25.197,0-49.144,8.506-66.965,23.313c-15.433-14.819-36.113-23.313-57.958-23.313
	c-35.929,0-67.04,22.997-78.734,55.359c-6.421-2.408-13.287-3.667-20.343-3.667c-31.897,0-57.846,25.95-57.846,57.846
	S56.103,512,88,512h336c31.897,0,57.846-25.95,57.846-57.846S455.897,396.308,424,396.308z"/>
<path style="fill:#D87C44;" d="M256,360.086c-3.858,2.371-7.527,4.986-10.965,7.842c-15.433-14.819-36.113-23.313-57.958-23.313
	c-35.929,0-67.04,22.997-78.734,55.359c-6.421-2.408-13.287-3.667-20.343-3.667c-31.897,0-57.846,25.95-57.846,57.846
	S56.103,512,88,512h168V360.086z"/>
<g>
</g>
<g>
</g>
<g>
</g>
<g>
</g>
<g>
</g>
<g>
</g>
<g>
</g>
<g>
</g>
<g>
</g>
<g>
</g>
<g>
</g>
<g>
</g>
<g>
</g>
<g>
</g>
<g>
</g>
</svg>
