<svg id="Capa_1" enable-background="new 0 0 512 512" height="512" viewBox="0 0 512 512" width="512" xmlns="http://www.w3.org/2000/svg"><g><path d="m330.93 11.877-74.93 100.623c57.99 0 105-47.01 105-105-10.451 0-20.543 1.534-30.07 4.377z" fill="#5b9b40"/><path d="m504.5 142.5h-30l-30 60 60-30z" fill="#70ae3e"/><path d="m7.5 142.5v30l20 30h447v-60z" fill="#9dcb3b"/><path d="m504.5 172.5h-30l-30 97.5 60-45z" fill="#522b28"/><path d="m7.5 172.5v52.5l30 45h437v-97.5z" fill="#7d3826"/><path d="m481.913 225c-2.791 0-5.227.235-7.413.637l-60 125.107 60 143.757 30-20v-249.501z" fill="#a94525"/><path d="m391.545 225c-22.591 0-22.591 15-45.183 15-22.591 0-22.591-15-45.182-15-22.588 0-22.588 15-45.177 15-22.591 0-22.591-15-45.182-15s-22.591 15-45.183 15c-22.593 0-22.593-15-45.185-15s-22.592 15-45.183 15-22.591-15-45.182-15h-22.588v249.5l30 20 79.25 10 69.625-10 69.625 10 69.625-10 69.625 10 79.25-10v-268.87c-15.52 2.845-17.966 14.37-37.77 14.37-22.592 0-22.592-15-45.185-15z" fill="#d45223"/><path d="m365.25 474.5h-30l30 30h30c0-16.569-13.431-30-30-30z" fill="#ffa630"/><path d="m335.25 474.5h-49.25c-16.569 0-30 13.431-30 30h109.25c0-16.569-13.431-30-30-30z" fill="#ffc938"/><path d="m226 474.5h-30l30 30h30c0-16.569-13.431-30-30-30z" fill="#ffa630"/><path d="m196 474.5h-49.25c-16.569 0-30 13.431-30 30h109.25c0-16.569-13.431-30-30-30z" fill="#ffc938"/><path d="m504.5 474.5h-30l-20 15 20 15h30z" fill="#ffa630"/><path d="m425.25 474.5c-16.569 0-30 13.431-30 30h79.25v-30z" fill="#ffc938"/><path d="m86.75 474.5h-30l30 30h30c0-16.569-13.431-30-30-30z" fill="#ffa630"/><path d="m56.75 474.5h-49.25v30h79.25c0-16.569-13.431-30-30-30z" fill="#ffc938"/><path d="m330.93 11.877c-43.335 12.932-74.93 53.084-74.93 100.623 40.374 0 73.29-44.664 74.93-100.623z" fill="#70ae3e"/><path d="m151 7.5c0 57.99 47.01 105 105 105 0-57.99-47.01-105-105-105z" fill="#70ae3e"/><circle cx="444.5" cy="444.5" r="7.5"/><circle cx="37.5" cy="444.5" r="7.5"/><circle cx="474.5" cy="414.5" r="7.5"/><path d="m504.5 135h-218.5c-4.143 0-7.5 3.358-7.5 7.5s3.357 7.5 7.5 7.5h211v15h-233.5v-45.256c58.549-3.873 105-52.732 105-112.244 0-4.142-3.357-7.5-7.5-7.5-47.801 0-88.733 29.966-105 72.099-16.267-42.133-57.199-72.099-105-72.099-4.143 0-7.5 3.358-7.5 7.5 0 59.512 46.451 108.371 105 112.244v15.256h-241c-4.143 0-7.5 3.358-7.5 7.5v362c0 4.142 3.357 7.5 7.5 7.5h497c4.143 0 7.5-3.358 7.5-7.5v-362c0-4.142-3.357-7.5-7.5-7.5zm-7.5 45v37.5h-15.082c-13.559 0-20.867 4.853-26.739 8.752-5.258 3.491-9.41 6.248-18.442 6.248-9.033 0-13.186-2.757-18.443-6.248-5.872-3.899-13.181-8.752-26.739-8.752-13.56 0-20.868 4.853-26.741 8.752-5.258 3.491-9.411 6.248-18.444 6.248-9.032 0-13.185-2.757-18.442-6.248-5.872-3.899-13.181-8.752-26.74-8.752s-20.867 4.853-26.739 8.752c-3.539 2.35-6.583 4.363-10.946 5.431v-51.683zm-101.75 302.023c-6.848-9.116-17.747-15.023-30-15.023h-79.25c-12.253 0-23.152 5.907-30 15.023-6.848-9.116-17.747-15.023-30-15.023h-79.25c-12.253 0-23.152 5.907-30 15.023-6.848-9.116-17.747-15.023-30-15.023h-71.75v-234.5h15.09c9.032 0 13.185 2.757 18.442 6.248 5.872 3.899 13.181 8.752 26.739 8.752 13.56 0 20.868-4.853 26.74-8.752 5.258-3.491 9.41-6.248 18.442-6.248 9.033 0 13.187 2.757 18.444 6.248 5.873 3.899 13.182 8.752 26.741 8.752s20.867-4.853 26.739-8.752c5.258-3.491 9.41-6.248 18.443-6.248 9.032 0 13.185 2.757 18.442 6.248 4.682 3.109 10.288 6.816 19.235 8.194v38.812c-14.884 3.033-26.579 14.913-29.36 29.885-17.411 3.233-30.64 18.526-30.64 36.86v32c0 4.142 3.357 7.5 7.5 7.5s7.5-3.358 7.5-7.5v-32c0-9.777 6.271-18.114 15-21.21v83.21c0 4.142 3.357 7.5 7.5 7.5s7.5-3.358 7.5-7.5v-92c0-9.777 6.271-18.114 15-21.21v143.211c0 4.142 3.357 7.5 7.5 7.5s7.5-3.358 7.5-7.5v-143.21c8.729 3.096 15 11.432 15 21.21v92c0 4.142 3.357 7.5 7.5 7.5s7.5-3.358 7.5-7.5v-83.21c8.729 3.096 15 11.432 15 21.21v32c0 4.142 3.357 7.5 7.5 7.5s7.5-3.358 7.5-7.5v-32c0-18.334-13.229-33.627-30.64-36.86-2.781-14.973-14.476-26.852-29.36-29.885v-38.811c8.952-1.377 14.56-5.086 19.243-8.196 5.258-3.491 9.41-6.248 18.442-6.248 9.033 0 13.186 2.757 18.443 6.248 5.872 3.899 13.181 8.752 26.739 8.752 13.56 0 20.868-4.853 26.741-8.752 5.258-3.491 9.411-6.248 18.444-6.248 9.032 0 13.185 2.757 18.442 6.248 5.872 3.899 13.181 8.752 26.74 8.752s20.867-4.853 26.739-8.752c5.258-3.491 9.41-6.248 18.442-6.248h15.088v234.5h-71.75c-12.253 0-23.152 5.907-30 15.023zm-8.79 14.977h-121.67c3.096-8.729 11.433-15 21.21-15h79.25c9.777 0 18.114 6.271 21.21 15zm-139.25 0h-121.67c3.096-8.729 11.433-15 21.21-15h79.25c9.777 0 18.114 6.271 21.21 15zm1.29-265.319c-4.359-1.068-7.401-3.08-10.938-5.429-5.872-3.899-13.181-8.752-26.739-8.752-13.56 0-20.868 4.853-26.74 8.752-5.258 3.491-9.41 6.248-18.442 6.248-9.033 0-13.187-2.757-18.444-6.248-5.873-3.899-13.182-8.752-26.741-8.752s-20.867 4.853-26.739 8.752c-5.258 3.491-9.41 6.248-18.443 6.248-9.032 0-13.185-2.757-18.442-6.248-5.872-3.899-13.181-8.752-26.739-8.752h-15.093v-37.5h233.5zm104.69-216.371c-3.786 47.548-41.833 85.595-89.381 89.381 3.787-47.549 41.834-85.595 89.381-89.381zm-194.38 0c47.548 3.786 85.595 41.833 89.381 89.381-47.548-3.787-85.595-41.833-89.381-89.381zm89.69 134.69v15h-233.5v-15zm-233.5 332h71.75c9.777 0 18.114 6.271 21.21 15h-92.96zm389.04 15c3.096-8.729 11.433-15 21.21-15h71.75v15z"/></g></svg>